ModelForces
version=1
nRows=4
nColumns=206
inDegrees=no

This file contains the forces exerted on a model during a simulation.

A force is a generalized force, meaning that it can be either a force (N) or a torque (Nm).

Units are S.I. units (second, meters, Newtons, ...)
Angles are in degrees.

endheader
time	glut_med1_r	glut_med2_r	glut_med3_r	glut_min1_r	glut_min2_r	glut_min3_r	semimem_r	semiten_r	bifemlh_r	bifemsh_r	sar_r	add_long_r	add_brev_r	add_mag1_r	add_mag2_r	add_mag3_r	tfl_r	pect_r	grac_r	glut_max1_r	glut_max2_r	glut_max3_r	iliacus_r	psoas_r	quad_fem_r	gem_r	peri_r	rect_fem_r	vas_med_r	vas_int_r	vas_lat_r	med_gas_r	lat_gas_r	soleus_r	tib_post_r	flex_dig_r	flex_hal_r	tib_ant_r	per_brev_r	per_long_r	per_tert_r	ext_dig_r	ext_hal_r	glut_med1_l	glut_med2_l	glut_med3_l	glut_min1_l	glut_min2_l	glut_min3_l	semimem_l	semiten_l	bifemlh_l	bifemsh_l	sar_l	add_long_l	add_brev_l	add_mag1_l	add_mag2_l	add_mag3_l	tfl_l	pect_l	grac_l	glut_max1_l	glut_max2_l	glut_max3_l	iliacus_l	psoas_l	quad_fem_l	gem_l	peri_l	rect_fem_l	vas_med_l	vas_int_l	vas_lat_l	med_gas_l	lat_gas_l	soleus_l	tib_post_l	flex_dig_l	flex_hal_l	tib_ant_l	per_brev_l	per_long_l	per_tert_l	ext_dig_l	ext_hal_l	ercspn_r	ercspn_l	intobl_r	intobl_l	extobl_r	extobl_l	femur_lat_meniscii_l.femur_lat_l.force.X	femur_lat_meniscii_l.femur_lat_l.force.Y	femur_lat_meniscii_l.femur_lat_l.force.Z	femur_lat_meniscii_l.femur_lat_l.torque.X	femur_lat_meniscii_l.femur_lat_l.torque.Y	femur_lat_meniscii_l.femur_lat_l.torque.Z	femur_lat_meniscii_l.meniscus_lat_l.force.X	femur_lat_meniscii_l.meniscus_lat_l.force.Y	femur_lat_meniscii_l.meniscus_lat_l.force.Z	femur_lat_meniscii_l.meniscus_lat_l.torque.X	femur_lat_meniscii_l.meniscus_lat_l.torque.Y	femur_lat_meniscii_l.meniscus_lat_l.torque.Z	femur_med_meniscii_l.femur_med_l.force.X	femur_med_meniscii_l.femur_med_l.force.Y	femur_med_meniscii_l.femur_med_l.force.Z	femur_med_meniscii_l.femur_med_l.torque.X	femur_med_meniscii_l.femur_med_l.torque.Y	femur_med_meniscii_l.femur_med_l.torque.Z	femur_med_meniscii_l.meniscus_med_l.force.X	femur_med_meniscii_l.meniscus_med_l.force.Y	femur_med_meniscii_l.meniscus_med_l.force.Z	femur_med_meniscii_l.meniscus_med_l.torque.X	femur_med_meniscii_l.meniscus_med_l.torque.Y	femur_med_meniscii_l.meniscus_med_l.torque.Z	femur_lat_meniscii_r.femur_lat_r.force.X	femur_lat_meniscii_r.femur_lat_r.force.Y	femur_lat_meniscii_r.femur_lat_r.force.Z	femur_lat_meniscii_r.femur_lat_r.torque.X	femur_lat_meniscii_r.femur_lat_r.torque.Y	femur_lat_meniscii_r.femur_lat_r.torque.Z	femur_lat_meniscii_r.meniscus_lat_r.force.X	femur_lat_meniscii_r.meniscus_lat_r.force.Y	femur_lat_meniscii_r.meniscus_lat_r.force.Z	femur_lat_meniscii_r.meniscus_lat_r.torque.X	femur_lat_meniscii_r.meniscus_lat_r.torque.Y	femur_lat_meniscii_r.meniscus_lat_r.torque.Z	femur_med_meniscii_r.femur_med_r.force.X	femur_med_meniscii_r.femur_med_r.force.Y	femur_med_meniscii_r.femur_med_r.force.Z	femur_med_meniscii_r.femur_med_r.torque.X	femur_med_meniscii_r.femur_med_r.torque.Y	femur_med_meniscii_r.femur_med_r.torque.Z	femur_med_meniscii_r.meniscus_med_r.force.X	femur_med_meniscii_r.meniscus_med_r.force.Y	femur_med_meniscii_r.meniscus_med_r.force.Z	femur_med_meniscii_r.meniscus_med_r.torque.X	femur_med_meniscii_r.meniscus_med_r.torque.Y	femur_med_meniscii_r.meniscus_med_r.torque.Z	femur_med_tibia_l.tibia_upper_l.force.X	femur_med_tibia_l.tibia_upper_l.force.Y	femur_med_tibia_l.tibia_upper_l.force.Z	femur_med_tibia_l.tibia_upper_l.torque.X	femur_med_tibia_l.tibia_upper_l.torque.Y	femur_med_tibia_l.tibia_upper_l.torque.Z	femur_med_tibia_l.femur_med_l.force.X	femur_med_tibia_l.femur_med_l.force.Y	femur_med_tibia_l.femur_med_l.force.Z	femur_med_tibia_l.femur_med_l.torque.X	femur_med_tibia_l.femur_med_l.torque.Y	femur_med_tibia_l.femur_med_l.torque.Z	femur_lat_tibia_l.tibia_upper_l.force.X	femur_lat_tibia_l.tibia_upper_l.force.Y	femur_lat_tibia_l.tibia_upper_l.force.Z	femur_lat_tibia_l.tibia_upper_l.torque.X	femur_lat_tibia_l.tibia_upper_l.torque.Y	femur_lat_tibia_l.tibia_upper_l.torque.Z	femur_lat_tibia_l.femur_lat_l.force.X	femur_lat_tibia_l.femur_lat_l.force.Y	femur_lat_tibia_l.femur_lat_l.force.Z	femur_lat_tibia_l.femur_lat_l.torque.X	femur_lat_tibia_l.femur_lat_l.torque.Y	femur_lat_tibia_l.femur_lat_l.torque.Z	femur_med_tibia_r.tibia_upper_r.force.X	femur_med_tibia_r.tibia_upper_r.force.Y	femur_med_tibia_r.tibia_upper_r.force.Z	femur_med_tibia_r.tibia_upper_r.torque.X	femur_med_tibia_r.tibia_upper_r.torque.Y	femur_med_tibia_r.tibia_upper_r.torque.Z	femur_med_tibia_r.femur_med_r.force.X	femur_med_tibia_r.femur_med_r.force.Y	femur_med_tibia_r.femur_med_r.force.Z	femur_med_tibia_r.femur_med_r.torque.X	femur_med_tibia_r.femur_med_r.torque.Y	femur_med_tibia_r.femur_med_r.torque.Z	femur_lat_tibia_r.tibia_upper_r.force.X	femur_lat_tibia_r.tibia_upper_r.force.Y	femur_lat_tibia_r.tibia_upper_r.force.Z	femur_lat_tibia_r.tibia_upper_r.torque.X	femur_lat_tibia_r.tibia_upper_r.torque.Y	femur_lat_tibia_r.tibia_upper_r.torque.Z	femur_lat_tibia_r.femur_lat_r.force.X	femur_lat_tibia_r.femur_lat_r.force.Y	femur_lat_tibia_r.femur_lat_r.force.Z	femur_lat_tibia_r.femur_lat_r.torque.X	femur_lat_tibia_r.femur_lat_r.torque.Y	femur_lat_tibia_r.femur_lat_r.torque.Z	aACL_R	pACL_R	aPCL_R	pPCL_R	aMCL_R	mMCL_R	pMCL_R	aLCL_R	mLCL_R	pLCL_R	aPCL_L	pPCL_L	aMCL_L	aLCL_L	ground_prescribedForce_-40_fx	ground_prescribedForce_-40_fy	ground_prescribedForce_-40_fz
      0.38205649	      7.77642330	      5.82305808	      6.23521774	      2.72958424	      3.25538919	      3.28918270	      3.37758719	      4.05723397	      5.39130614	      6.41023117	      1.57667122	      5.77097421	      4.25007825	      2.99936790	      2.52298159	      4.11225925	      3.77350248	      2.29858071	      1.57339940	      3.75750779	      5.71062370	      4.26497983	     22.93292709	     13.28792129	      3.72516233	      2.90047054	      4.27142813	     17.93715653	     12.32583738	     12.72123837	     16.88765959	      0.00000000	      1.11979816	     11.49984736	     11.76729149	      2.54814473	      2.70890911	     12.43908975	      4.00224757	      8.03389540	      8.64495169	      6.14230937	      1.67071228	      7.77642330	      5.82305808	      6.23521774	      2.72958424	      3.25538919	      3.28918270	      9.07730727	      4.20563460	      7.95949854	      7.41210647	      1.55993638	      5.77097421	      4.25007825	      2.99936790	      2.52298159	      4.11225925	      4.17423532	      2.29858071	      1.60065117	      3.75750779	      5.71062370	      4.26497983	     22.93292709	     13.28792129	      3.72516233	      2.90047054	      4.27142813	     11.04379194	      6.77999689	      7.78140393	      8.36591895	     14.73743416	      6.84346085	     32.46314057	     42.90121352	      2.91336073	      3.06025983	      8.73537211	      4.50338601	     12.84759907	      2.05567687	      5.46212557	      1.73172903	     25.67255471	     25.67255471	      9.26146758	      9.26146758	     27.03947951	     27.03947951	      2.76307435	     50.99597937	     -9.56042239	      5.21997485	     -0.02578839	      1.48581788	     -2.76307435	    -50.99597937	      9.56042239	     -1.74637766	      0.02558040	     -0.48301696	     -3.31599387	     20.97615968	     -3.40468921	      0.94473225	     -0.02138609	     -1.00501789	      3.31599387	    -20.97615968	      3.40468921	      0.28075727	      0.00368718	     -0.29758878	     77.97031316	     69.65265603	     23.33399266	    -11.29099292	      1.92730810	     31.99932143	    -77.97031316	    -69.65265603	    -23.33399266	      2.48914310	     -2.49608246	     -0.89021622	    118.18118523	     48.80968507	      1.57712172	      0.39543456	     -2.48693626	     48.18281350	   -118.18118523	    -48.80968507	     -1.57712172	     -0.87420994	      2.15116566	     -1.91428617	      0.00000000	      0.00000000	      0.00000000	      0.00000000	      0.00000000	      0.00000000	      0.00000000	      0.00000000	      0.00000000	      0.00000000	      0.00000000	      0.00000000	      0.00000000	      0.00000000	      0.00000000	      0.00000000	      0.00000000	      0.00000000	      0.00000000	      0.00000000	      0.00000000	      0.00000000	      0.00000000	      0.00000000	    -16.37497823	    -16.61864157	      3.21562294	     -0.34264749	      0.29480772	     -0.21559170	     16.37497823	     16.61864157	     -3.21562294	      1.62465522	     -0.28784038	      6.77999209	      0.00000000	      0.00000000	      0.00000000	      0.00000000	      0.00000000	      0.00000000	      0.00000000	      0.00000000	      0.00000000	      0.00000000	      0.00000000	      0.00000000	     55.28694084	     21.03177753	    107.50409786	     30.83913307	      0.00000000	      0.00000000	      0.00000000	      0.00000000	      0.00000000	      0.00000000	      0.00000000	      0.00000000	      0.00000001	      0.00000000	     84.26488000	    -70.70660000	      0.00000000
      0.38262004	      7.77474965	      5.82190673	      6.23396957	      2.72906745	      3.25482977	      3.28847628	      3.37819160	      4.05715979	      5.38632189	      6.41003796	      1.57697458	      5.76981981	      4.24928089	      2.99877912	      2.52247448	      4.11134473	      3.77060587	      2.29814274	      1.57377752	      3.75676526	      5.70949180	      4.26411903	     22.93083770	     13.28556792	      3.72444167	      2.90013222	      4.27012321	     17.93455944	     12.32971073	     12.72173096	     16.88347704	      0.00000000	      1.11696679	     11.47782860	     11.74868474	      2.54749889	      2.71929896	     12.44043520	      4.00426585	      8.03612850	      8.65079024	      6.13387454	      1.66051332	      7.77474965	      5.82190673	      6.23396957	      2.72906745	      3.25482977	      3.28847628	      9.07488328	      4.20473806	      7.95747585	      7.41067162	      1.55964238	      5.76981981	      4.24928089	      2.99877912	      2.52247448	      4.11134473	      4.17366922	      2.29814274	      1.60034426	      3.75676526	      5.70949180	      4.26411903	     22.93083770	     13.28556792	      3.72444167	      2.90013222	      4.27012321	     11.04103697	      6.77862505	      7.77979916	      8.36420201	     14.73202783	      6.84094744	     32.45323167	     42.89728174	      2.91220275	      3.05926001	      8.73329579	      4.50215262	     12.84475146	      2.05531207	      5.46069887	      1.73131085	     25.66768307	     25.66768307	      9.25955398	      9.25955398	     27.03776048	     27.03776048	      2.76307435	     50.99597937	     -9.56042239	      5.21997485	     -0.02578839	      1.48581788	     -2.76307435	    -50.99597937	      9.56042239	     -1.74637766	      0.02558040	     -0.48301696	     -3.31599387	     20.97615968	     -3.40468921	      0.94473225	     -0.02138609	     -1.00501789	      3.31599387	    -20.97615968	      3.40468921	      0.28075727	      0.00368718	     -0.29758878	     78.11288697	     69.73195463	     23.35329055	    -11.30091870	      1.93075874	     32.05840737	    -78.11288697	    -69.73195463	    -23.35329055	      2.49198357	     -2.50039816	     -0.89305950	    118.11411402	     48.72486213	      1.56534121	      0.39830123	     -2.48525449	     48.15587209	   -118.11411402	    -48.72486213	     -1.56534121	     -0.87265981	      2.14958881	     -1.91438394	      0.00000000	      0.00000000	      0.00000000	      0.00000000	      0.00000000	      0.00000000	      0.00000000	      0.00000000	      0.00000000	      0.00000000	      0.00000000	      0.00000000	      0.00000000	      0.00000000	      0.00000000	      0.00000000	      0.00000000	      0.00000000	      0.00000000	      0.00000000	      0.00000000	      0.00000000	      0.00000000	      0.00000000	    -16.23103946	    -16.47020897	      3.18956486	     -0.33964065	      0.29222768	     -0.21375858	     16.23103946	     16.47020897	     -3.18956486	      1.61126042	     -0.28531917	      6.72044407	      0.00000000	      0.00000000	      0.00000000	      0.00000000	      0.00000000	      0.00000000	      0.00000000	      0.00000000	      0.00000000	      0.00000000	      0.00000000	      0.00000000	     55.30430262	     21.04049442	    107.41249862	     30.81678468	      0.00000000	      0.00000000	      0.00000000	      0.00000000	      0.00000000	      0.00000000	      0.00000000	      0.00000000	      0.00000001	      0.00000000	     84.26488000	    -70.70660000	      0.00000000
      0.38356293	      7.77197656	      5.81999902	      6.23190144	      2.72821116	      3.25390286	      3.28730580	      3.37902433	      4.05696351	      5.37827866	      6.40752200	      1.57708546	      5.76790704	      4.24795971	      2.99780354	      2.52163426	      4.10982946	      3.76575097	      2.29741704	      1.57416136	      3.75553493	      5.70761631	      4.26269275	     22.92737574	     13.28166866	      3.72324758	      2.89957167	      4.26796047	     17.93021239	     12.33578258	     12.72225827	     16.87649185	      1.62675298	      1.11207291	     11.44147964	     11.71784700	      2.54625296	      2.73644135	     12.44278617	      4.00727812	      8.03953495	      8.66084836	      6.12092786	      1.64369493	      7.77197656	      5.81999902	      6.23190144	      2.72821116	      3.25390286	      3.28730580	      9.07086667	      4.20325257	      7.95412433	      7.40829417	      1.55915525	      5.76790704	      4.24795971	      2.99780354	      2.52163426	      4.10982946	      4.17273125	      2.29741704	      1.59983572	      3.75553493	      5.70761631	      4.26269275	     22.92737574	     13.28166866	      3.72324758	      2.89957167	      4.26796047	     11.03647211	      6.77635204	      7.77714019	      8.36135720	     14.72306294	      6.83677963	     32.43680913	     42.89076624	      2.91027969	      3.05760159	      8.72985549	      4.50010880	     12.84003120	      2.05470762	      5.45833690	      1.73061845	     25.65961100	     25.65961100	      9.25638331	      9.25638331	     27.03491218	     27.03491218	      2.76307435	     50.99597937	     -9.56042239	      5.21997485	     -0.02578839	      1.48581788	     -2.76307435	    -50.99597937	      9.56042239	     -1.74637766	      0.02558040	     -0.48301696	     -3.31599387	     20.97615968	     -3.40468921	      0.94473225	     -0.02138609	     -1.00501789	      3.31599387	    -20.97615968	      3.40468921	      0.28075727	      0.00368718	     -0.29758878	     78.38150789	     69.89730065	     23.39028512	    -11.32020489	      1.93721486	     32.16959128	    -78.38150789	    -69.89730065	    -23.39028512	      2.49769067	     -2.50845766	     -0.89804871	    118.03846540	     48.63990650	      1.56235999	      0.39738083	     -2.48297512	     48.12531533	   -118.03846540	    -48.63990650	     -1.56235999	     -0.87064132	      2.14712710	     -1.91409715	      0.00000000	      0.00000000	      0.00000000	      0.00000000	      0.00000000	      0.00000000	      0.00000000	      0.00000000	      0.00000000	      0.00000000	      0.00000000	      0.00000000	      0.00000000	      0.00000000	      0.00000000	      0.00000000	      0.00000000	      0.00000000	      0.00000000	      0.00000000	      0.00000000	      0.00000000	      0.00000000	      0.00000000	    -15.99645395	    -16.23214566	      3.14038334	     -0.33455640	      0.28788964	     -0.21068624	     15.99645395	     16.23214566	     -3.14038334	      1.58667174	     -0.28118179	      6.62337087	      0.00000000	      0.00000000	      0.00000000	      0.00000000	      0.00000000	      0.00000000	      0.00000000	      0.00000000	      0.00000000	      0.00000000	      0.00000000	      0.00000000	     55.28530770	     21.00400184	    107.20539141	     30.65119203	      0.00000000	      0.00000000	      0.00000000	      0.00000000	      0.00000000	      0.00000000	      0.00000000	      0.00000000	      0.00000001	      0.00000000	     84.26488000	    -70.70660000	      0.00000000
      0.38487965	      7.76816023	      5.81737355	      6.22905522	      2.72703267	      3.25262719	      3.28569498	      3.37866099	      4.05579311	      5.36666536	      6.39932716	      1.57634652	      5.76527463	      4.24614144	      2.99646092	      2.52047791	      4.10774415	      3.75859913	      2.29641829	      1.57383600	      3.75384172	      5.70503522	      4.26072986	     22.92261133	     13.27630256	      3.72160421	      2.89880025	      4.26498285	     17.92197532	     12.33919384	     12.71801977	     16.86199282	      1.20470764	      1.10354307	     11.38306485	     11.67534549	      2.54413386	      2.75967697	     12.44990973	      4.00960450	      8.04225035	      8.67563399	      6.10631062	      1.62193504	      7.76816023	      5.81737355	      6.22905522	      2.72703267	      3.25262719	      3.28569498	      9.06533847	      4.20120823	      7.94951172	      7.40502220	      1.55848484	      5.76527463	      4.24614144	      2.99646092	      2.52047791	      4.10774415	      4.17144043	      2.29641829	      1.59913585	      3.75384172	      5.70503522	      4.26072986	     22.92261133	     13.27630256	      3.72160421	      2.89880025	      4.26498285	     11.03018971	      6.77322388	      7.77348091	      8.35744217	     14.71071080	      6.83103706	     32.41419933	     42.88179776	      2.90762416	      3.05531561	      8.72512088	      4.49729567	     12.83353097	      2.05387577	      5.45509022	      1.72966651	     25.64850174	     25.64850174	      9.25201976	      9.25201976	     27.03099231	     27.03099231	      2.76307435	     50.99597937	     -9.56042239	      5.21997485	     -0.02578839	      1.48581788	     -2.76307435	    -50.99597937	      9.56042239	     -1.74637766	      0.02558040	     -0.48301696	     -3.31599387	     20.97615968	     -3.40468921	      0.94473225	     -0.02138609	     -1.00501789	      3.31599387	    -20.97615968	      3.40468921	      0.28075727	      0.00368718	     -0.29758878	     78.68013469	     70.10342585	     23.42052827	    -11.33784531	      1.94453774	     32.29339657	    -78.68013469	    -70.10342585	    -23.42052827	      2.50455413	     -2.51748901	     -0.90339641	    117.97262331	     48.59589813	      1.57954583	      0.38897587	     -2.48045639	     48.09834801	   -117.97262331	    -48.59589813	     -1.57954583	     -0.86872856	      2.14391949	     -1.91292240	      0.00000000	      0.00000000	      0.00000000	      0.00000000	      0.00000000	      0.00000000	      0.00000000	      0.00000000	      0.00000000	      0.00000000	      0.00000000	      0.00000000	      0.00000000	      0.00000000	      0.00000000	      0.00000000	      0.00000000	      0.00000000	      0.00000000	      0.00000000	      0.00000000	      0.00000000	      0.00000000	      0.00000000	    -15.71708490	    -15.94807434	      3.07964737	     -0.32841795	      0.28266753	     -0.20701203	     15.71708490	     15.94807434	     -3.07964737	      1.55647920	     -0.27624015	      6.50774874	      0.00000000	      0.00000000	      0.00000000	      0.00000000	      0.00000000	      0.00000000	      0.00000000	      0.00000000	      0.00000000	      0.00000000	      0.00000000	      0.00000000	     55.21578226	     20.91006232	    106.86136377	     30.33814859	      0.00000000	      0.00000000	      0.00000000	      0.00000000	      0.00000000	      0.00000000	      0.00000000	      0.00000000	      0.00000001	      0.00000000	     84.26488000	    -70.70660000	      0.00000000
